<svg id="visual" viewBox="0 0 400 400" width="400" height="400" xmlns="http://www.w3.org/2000/svg" xmlns:xlink="http://www.w3.org/1999/xlink" version="1.1"><rect x="0" y="0" width="400" height="400" fill="none"></rect><defs><linearGradient id="grad1_0" x1="0%" y1="100%" x2="100%" y2="0%"><stop offset="30%" stop-color="#ffffff" stop-opacity="1"></stop><stop offset="70%" stop-color="#ffffff" stop-opacity="1"></stop></linearGradient></defs><defs><linearGradient id="grad2_0" x1="0%" y1="100%" x2="100%" y2="0%"><stop offset="30%" stop-color="#ffffff" stop-opacity="1"></stop><stop offset="70%" stop-color="#ffffff" stop-opacity="1"></stop></linearGradient></defs><g transform="translate(400, 400)"><path d="M-268.7 0C-256.9 -9.1 -245 -18.3 -243.2 -29.5C-241.4 -40.8 -249.6 -54.1 -232.1 -57.2C-214.5 -60.3 -171.2 -53 -176.7 -67C-182.3 -81 -236.7 -116.2 -237.9 -124.9C-239.1 -133.5 -187.2 -115.5 -169.5 -117C-151.9 -118.5 -168.6 -139.4 -172.2 -152.5C-175.7 -165.6 -166 -170.8 -159.8 -180.4C-153.6 -190 -150.9 -203.9 -138 -200C-125.2 -196 -102.1 -174.2 -91.6 -174.4C-81 -174.7 -83.1 -197.1 -78.4 -206.6C-73.7 -216.2 -62.3 -213 -53.1 -215.5C-44 -218.1 -37.2 -226.4 -28.7 -236.3C-20.2 -246.1 -10.1 -257.4 0 -268.7L0 0Z" fill="#010101"></path></g><g transform="translate(0, 0)"><path d="M268.7 0C245 7.7 221.3 15.4 224.4 27.2C227.4 39.1 257.3 55 251.5 62C245.7 69 204.3 67.1 186.1 70.6C167.9 74.1 172.9 82.9 176.2 92.5C179.6 102 181.3 112.2 186.8 129C192.4 145.7 201.8 169 186.4 165.1C170.9 161.3 130.6 130.3 126.7 143C122.7 155.6 155 211.8 152.6 221.1C150.3 230.5 113.3 193 96.7 184.2C80 175.4 83.8 195.3 82.3 216.9C80.7 238.6 73.9 262 62.7 254.4C51.5 246.8 36.1 208.3 25 205.5C13.8 202.7 6.9 235.7 0 268.7L0 0Z" fill="#010101"></path></g></svg>
