<?xml version="1.0" standalone="no"?><!DOCTYPE svg PUBLIC "-//W3C//DTD SVG 1.1//EN" "http://www.w3.org/Graphics/SVG/1.1/DTD/svg11.dtd"><svg t="1498270746359" class="icon" style="" viewBox="0 0 1024 1024" version="1.1" xmlns="http://www.w3.org/2000/svg" p-id="3349" xmlns:xlink="http://www.w3.org/1999/xlink" width="200" height="200"><defs><style type="text/css"></style></defs><path d="M933.12 879.36C933.12 879.36 879.36 877.12 803.2 854.72 899.52 771.84 960 650.88 960 514.24 960 265.6 758.4 64 512 64 265.6 64 64 265.6 64 512 64 637.44 117.76 758.4 209.6 843.52L209.6 843.52 209.6 843.52C214.08 848 220.8 850.24 225.28 850.24 238.72 850.24 247.68 841.28 247.68 827.84 247.68 821.12 245.44 816.64 240.96 812.16L240.96 812.16C155.84 733.76 108.8 626.24 108.8 512 108.8 290.24 290.24 108.8 512 108.8 733.76 108.8 915.2 290.24 915.2 512 915.2 644.16 850.24 762.88 751.68 836.8 733.76 830.08 718.08 821.12 700.16 812.16 576.96 744.96 422.4 758.4 355.2 814.4 321.6 843.52 317.12 868.16 321.6 886.08 328.32 915.2 357.44 933.12 382.08 942.08 422.4 953.28 467.2 960 512 960 603.84 960 691.2 933.12 762.88 886.08 856.96 919.68 906.24 921.92 935.36 924.16 951.04 924.16 960 915.2 960 901.76 957.76 888.32 951.04 879.36 933.12 879.36L933.12 879.36ZM512 915.2C471.68 915.2 433.6 908.48 395.52 897.28 379.84 892.8 368.64 883.84 366.4 874.88 364.16 868.16 373.12 856.96 384.32 848 408.96 827.84 460.48 812.16 520.96 812.16 570.24 812.16 626.24 823.36 680 852.48 688.96 856.96 697.92 861.44 706.88 865.92 648.64 897.28 581.44 915.2 512 915.2L512 915.2Z" p-id="3350"></path></svg>