<?xml version="1.0" standalone="no"?><!DOCTYPE svg PUBLIC "-//W3C//DTD SVG 1.1//EN" "http://www.w3.org/Graphics/SVG/1.1/DTD/svg11.dtd"><svg height="1024" node-id="1" sillyvg="true" template-height="1024" template-width="1024" version="1.1" viewBox="0 0 1024 1024" width="1024" xmlns="http://www.w3.org/2000/svg" xmlns:xlink="http://www.w3.org/1999/xlink"><defs node-id="9"><clipPath id="master_svg0_669_59671" node-id="3"><path d="M 0.00 0.00 L 1024.00 0.00 L 1024.00 1024.00 L 0.00 1024.00 Z" fill="#000000" fill-rule="nonzero" node-id="12" stroke="none" target-height="1024" target-width="1024" target-x="0" target-y="0"></path></clipPath></defs><g node-id="22"><g clip-path="url(#master_svg0_669_59671)" group-id="1" id="sillyvg_g_1" node-id="18"><path d="M 758.80 284.81 L 581.69 199.91 C 531.36 175.78 472.91 176.57 423.22 202.04 L 262.34 284.52 C 221.90 305.26 196.38 347.38 196.38 393.43 L 196.38 617.36 C 196.38 660.69 219.00 700.77 255.79 722.65 L 413.63 816.51 C 468.39 849.07 535.94 850.06 591.60 819.11 L 765.20 722.59 C 803.68 701.19 827.62 660.16 827.62 615.57 L 827.62 395.14 C 827.62 347.92 800.81 304.95 758.80 284.81 Z M 352.11 550.60 C 330.96 542.57 328.69 513.69 348.55 502.84 C 435.99 455.04 525.20 410.42 614.10 365.30 C 633.64 355.38 655.85 371.90 652.58 393.56 L 619.04 615.88 C 616.45 633.00 598.61 643.26 582.52 636.88 L 527.14 614.92 C 520.65 612.35 513.24 614.24 508.78 619.61 L 471.45 664.54 C 469.49 667.01 466.93 668.36 463.76 668.65 L 462.37 668.71 C 461.31 668.74 460.26 668.60 459.26 668.31 L 458.26 667.97 C 456.35 667.29 454.66 666.14 453.36 664.62 L 452.62 663.67 C 451.23 661.72 450.47 659.39 450.47 657.00 L 450.47 599.80 C 450.47 591.93 452.84 584.24 457.27 577.74 L 484.72 537.48 C 487.93 532.76 482.49 526.98 477.53 529.81 C 451.46 544.67 443.89 548.91 412.98 566.43 C 407.76 569.38 401.56 569.77 395.99 567.55 C 382.13 562.03 367.11 556.29 352.11 550.60 Z" fill="#b88566" fill-rule="evenodd" group-id="1" node-id="20" stroke="none" target-height="674.27893" target-width="631.233" target-x="196.38354" target-y="175.77931"></path></g></g></svg>